{
    "asset": {
        "version": "2.0",
        "generator": "Open Asset Import Library (assimp v5.4.0)"
    },
    "extensionsUsed": [
        "KHR_materials_volume",
        "FB_ngon_encoding"
    ],
    "accessors": [
        {
            "bufferView": 0,
            "byteOffset": 0,
            "componentType": 5126,
            "count": 1336,
            "type": "VEC3",
            "max": [
                0.699999988079071,
                0.8330000042915344,
                0.4550696611404419
            ],
            "min": [
                -0.699999988079071,
                0.0,
                -0.4449303448200226
            ]
        },
        {
            "bufferView": 1,
            "byteOffset": 0,
            "componentType": 5126,
            "count": 1336,
            "type": "VEC3",
            "max": [
                1.0,
                1.0,
                1.0
            ],
            "min": [
                -1.0,
                -1.0,
                -1.0
            ]
        },
        {
            "bufferView": 2,
            "byteOffset": 0,
            "componentType": 5126,
            "count": 1336,
            "type": "VEC2",
            "max": [
                0.9990234375,
                0.9990234375
            ],
            "min": [
                0.0009765625,
                0.0032100677490234375
            ]
        },
        {
            "bufferView": 3,
            "byteOffset": 0,
            "componentType": 5125,
            "count": 5616,
            "type": "SCALAR",
            "max": [
                1335
            ],
            "min": [
                0
            ]
        }
    ],
    "buffers": [
        {
            "byteLength": 65216,
            "uri": "uploads_files_3912834_Table_0.bin"
        }
    ],
    "bufferViews": [
        {
            "buffer": 0,
            "byteOffset": 0,
            "byteLength": 16032,
            "target": 34962
        },
        {
            "buffer": 0,
            "byteOffset": 16032,
            "byteLength": 16032,
            "target": 34962
        },
        {
            "buffer": 0,
            "byteOffset": 32064,
            "byteLength": 10688,
            "target": 34962
        },
        {
            "buffer": 0,
            "byteOffset": 42752,
            "byteLength": 22464,
            "target": 34963
        }
    ],
    "images": [
        {
            "uri": "textures/image_1.png"
        },
        {
            "uri": "textures/image_0.png"
        },
        {
            "uri": "textures/image_2.png"
        }
    ],
    "materials": [
        {
            "name": "table",
            "pbrMetallicRoughness": {
                "baseColorTexture": {
                    "index": 0
                },
                "metallicRoughnessTexture": {
                    "index": 1
                },
                "metallicFactor": 0.800000011920929
            },
            "normalTexture": {
                "index": 2
            },
            "doubleSided": true
        }
    ],
    "meshes": [
        {
            "name": "meshes[0]",
            "primitives": [
                {
                    "mode": 4,
                    "material": 0,
                    "indices": 3,
                    "attributes": {
                        "POSITION": 0,
                        "NORMAL": 1,
                        "TEXCOORD_0": 2
                    }
                }
            ]
        }
    ],
    "nodes": [
        {
            "name": "uploads_files_3912834_Table",
            "children": [
                1
            ]
        },
        {
            "name": "Desk",
            "mesh": 0,
            "extras": {
                "name": "Desk"
            }
        }
    ],
    "samplers": [
        {
            "magFilter": 9729,
            "minFilter": 9987
        },
        {
            "magFilter": 9729,
            "minFilter": 9987
        },
        {
            "magFilter": 9729,
            "minFilter": 9987
        }
    ],
    "scenes": [
        {
            "nodes": [
                0
            ]
        }
    ],
    "textures": [
        {
            "source": 0,
            "sampler": 0
        },
        {
            "source": 1,
            "sampler": 1
        },
        {
            "source": 2,
            "sampler": 2
        }
    ],
    "scene": 0
}