{
	"asset":{
		"generator":"Khronos glTF Blender I/O v4.4.56",
		"version":"2.0"
	},
	"extensionsUsed":[
		"KHR_materials_transmission",
		"KHR_materials_specular"
	],
	"scene":0,
	"scenes":[
		{
			"name":"Scene",
			"nodes":[
				0
			]
		}
	],
	"nodes":[
		{
			"mesh":0,
			"name":"couch_01",
			"rotation":[
				0.7071068286895752,
				0,
				0,
				0.7071068286895752
			],
			"scale":[
				0.05000000074505806,
				0.05000000074505806,
				0.05000000074505806
			]
		}
	],
	"materials":[
		{
			"doubleSided":true,
			"extensions":{
				"KHR_materials_transmission":{
					"transmissionFactor":1
				},
				"KHR_materials_specular":{
					"specularFactor":0.699999988079071
				}
			},
			"name":"wire_000000000",
			"pbrMetallicRoughness":{
				"baseColorFactor":[
					0,
					0,
					0,
					1
				],
				"metallicFactor":0,
				"roughnessFactor":0.8211145401000977
			}
		}
	],
	"meshes":[
		{
			"name":"couch_01",
			"primitives":[
				{
					"attributes":{
						"POSITION":0,
						"NORMAL":1,
						"TEXCOORD_0":2
					},
					"indices":3,
					"material":0
				}
			]
		}
	],
	"accessors":[
		{
			"bufferView":0,
			"componentType":5126,
			"count":1053628,
			"max":[
				807.3826293945312,
				129.67410278320312,
				-27.445600509643555
			],
			"min":[
				-581.9172973632812,
				-496.7681884765625,
				-773.2722778320312
			],
			"type":"VEC3"
		},
		{
			"bufferView":1,
			"componentType":5126,
			"count":1053628,
			"type":"VEC3"
		},
		{
			"bufferView":2,
			"componentType":5126,
			"count":1053628,
			"type":"VEC2"
		},
		{
			"bufferView":3,
			"componentType":5125,
			"count":6201648,
			"type":"SCALAR"
		}
	],
	"bufferViews":[
		{
			"buffer":0,
			"byteLength":12643536,
			"byteOffset":0,
			"target":34962
		},
		{
			"buffer":0,
			"byteLength":12643536,
			"byteOffset":12643536,
			"target":34962
		},
		{
			"buffer":0,
			"byteLength":8429024,
			"byteOffset":25287072,
			"target":34962
		},
		{
			"buffer":0,
			"byteLength":24806592,
			"byteOffset":33716096,
			"target":34963
		}
	],
	"buffers":[
		{
			"byteLength":58522688,
			"uri":"sofa.bin"
		}
	]
}
