{
	"asset":{
		"generator":"Khronos glTF Blender I/O v4.4.56",
		"version":"2.0"
	},
	"scene":0,
	"scenes":[
		{
			"name":"Scene",
			"nodes":[
				1
			]
		}
	],
	"nodes":[
		{
			"mesh":0,
			"name":"Desk"
		},
		{
			"children":[
				0
			],
			"name":"uploads_files_3912834_Table"
		}
	],
	"materials":[
		{
			"doubleSided":true,
			"name":"table.001",
			"pbrMetallicRoughness":{
				"metallicFactor":0.800000011920929
			}
		}
	],
	"meshes":[
		{
			"name":"meshes[0].001",
			"primitives":[
				{
					"attributes":{
						"POSITION":0,
						"NORMAL":1,
						"TEXCOORD_0":2
					},
					"indices":3,
					"material":0
				}
			]
		}
	],
	"accessors":[
		{
			"bufferView":0,
			"componentType":5126,
			"count":1593,
			"max":[
				0.699999988079071,
				0.8330000042915344,
				0.4550696611404419
			],
			"min":[
				-0.699999988079071,
				0,
				-0.4449303448200226
			],
			"type":"VEC3"
		},
		{
			"bufferView":1,
			"componentType":5126,
			"count":1593,
			"type":"VEC3"
		},
		{
			"bufferView":2,
			"componentType":5126,
			"count":1593,
			"type":"VEC2"
		},
		{
			"bufferView":3,
			"componentType":5123,
			"count":5616,
			"type":"SCALAR"
		}
	],
	"bufferViews":[
		{
			"buffer":0,
			"byteLength":19116,
			"byteOffset":0,
			"target":34962
		},
		{
			"buffer":0,
			"byteLength":19116,
			"byteOffset":19116,
			"target":34962
		},
		{
			"buffer":0,
			"byteLength":12744,
			"byteOffset":38232,
			"target":34962
		},
		{
			"buffer":0,
			"byteLength":11232,
			"byteOffset":50976,
			"target":34963
		}
	],
	"buffers":[
		{
			"byteLength":62208,
			"uri":"mesa.bin"
		}
	]
}
