{
	"asset":{
		"generator":"Khronos glTF Blender I/O v4.4.56",
		"version":"2.0"
	},
	"extensionsUsed":[
		"KHR_materials_specular"
	],
	"scene":0,
	"scenes":[
		{
			"name":"Scene",
			"nodes":[
				0
			]
		}
	],
	"nodes":[
		{
			"mesh":0,
			"name":"Cadeira",
			"rotation":[
				0.7071068286895752,
				0,
				0,
				0.7071068286895752
			],
			"scale":[
				0.20000000298023224,
				0.20000000298023224,
				0.20000000298023224
			]
		}
	],
	"materials":[
		{
			"doubleSided":true,
			"extensions":{
				"KHR_materials_specular":{
					"specularFactor":0
				}
			},
			"name":"initialShadingGroup",
			"pbrMetallicRoughness":{
				"baseColorFactor":[
					0.800000011920929,
					0.800000011920929,
					0.800000011920929,
					1
				],
				"metallicFactor":0
			}
		},
		{
			"doubleSided":true,
			"extensions":{
				"KHR_materials_specular":{
					"specularFactor":0
				}
			},
			"name":"lambert7SG",
			"pbrMetallicRoughness":{
				"baseColorFactor":[
					0.800000011920929,
					0.800000011920929,
					0.800000011920929,
					1
				],
				"metallicFactor":0
			}
		},
		{
			"doubleSided":true,
			"extensions":{
				"KHR_materials_specular":{
					"specularFactor":0
				}
			},
			"name":"lambert9SG",
			"pbrMetallicRoughness":{
				"baseColorFactor":[
					0.800000011920929,
					0.800000011920929,
					0.800000011920929,
					1
				],
				"metallicFactor":0
			}
		},
		{
			"doubleSided":true,
			"extensions":{
				"KHR_materials_specular":{
					"specularFactor":0
				}
			},
			"name":"lambert6SG",
			"pbrMetallicRoughness":{
				"baseColorFactor":[
					0.800000011920929,
					0.800000011920929,
					0.800000011920929,
					1
				],
				"metallicFactor":0
			}
		},
		{
			"doubleSided":true,
			"extensions":{
				"KHR_materials_specular":{
					"specularFactor":0
				}
			},
			"name":"blinn1SG",
			"pbrMetallicRoughness":{
				"baseColorFactor":[
					0.800000011920929,
					0.800000011920929,
					0.800000011920929,
					1
				],
				"metallicFactor":0
			}
		},
		{
			"doubleSided":true,
			"extensions":{
				"KHR_materials_specular":{
					"specularFactor":0
				}
			},
			"name":"lambert5SG",
			"pbrMetallicRoughness":{
				"baseColorFactor":[
					0.800000011920929,
					0.800000011920929,
					0.800000011920929,
					1
				],
				"metallicFactor":0
			}
		},
		{
			"doubleSided":true,
			"extensions":{
				"KHR_materials_specular":{
					"specularFactor":0
				}
			},
			"name":"lambert4SG",
			"pbrMetallicRoughness":{
				"baseColorFactor":[
					0.800000011920929,
					0.800000011920929,
					0.800000011920929,
					1
				],
				"metallicFactor":0
			}
		},
		{
			"doubleSided":true,
			"extensions":{
				"KHR_materials_specular":{
					"specularFactor":0
				}
			},
			"name":"phong2SG",
			"pbrMetallicRoughness":{
				"baseColorFactor":[
					0.800000011920929,
					0.800000011920929,
					0.800000011920929,
					1
				],
				"metallicFactor":0
			}
		}
	],
	"meshes":[
		{
			"name":"Cadeira",
			"primitives":[
				{
					"attributes":{
						"POSITION":0,
						"NORMAL":1,
						"TEXCOORD_0":2
					},
					"indices":3,
					"material":0
				},
				{
					"attributes":{
						"POSITION":4,
						"NORMAL":5,
						"TEXCOORD_0":6
					},
					"indices":7,
					"material":1
				},
				{
					"attributes":{
						"POSITION":8,
						"NORMAL":9,
						"TEXCOORD_0":10
					},
					"indices":11,
					"material":2
				},
				{
					"attributes":{
						"POSITION":12,
						"NORMAL":13,
						"TEXCOORD_0":14
					},
					"indices":15,
					"material":3
				},
				{
					"attributes":{
						"POSITION":16,
						"NORMAL":17,
						"TEXCOORD_0":18
					},
					"indices":19,
					"material":4
				},
				{
					"attributes":{
						"POSITION":20,
						"NORMAL":21,
						"TEXCOORD_0":22
					},
					"indices":23,
					"material":5
				},
				{
					"attributes":{
						"POSITION":24,
						"NORMAL":25,
						"TEXCOORD_0":26
					},
					"indices":27,
					"material":6
				},
				{
					"attributes":{
						"POSITION":28,
						"NORMAL":29,
						"TEXCOORD_0":30
					},
					"indices":31,
					"material":7
				}
			]
		}
	],
	"accessors":[
		{
			"bufferView":0,
			"componentType":5126,
			"count":6447,
			"max":[
				38.4107666015625,
				34.89475631713867,
				42.22696304321289
			],
			"min":[
				-28.81955337524414,
				-48.27656555175781,
				-82.62904357910156
			],
			"type":"VEC3"
		},
		{
			"bufferView":1,
			"componentType":5126,
			"count":6447,
			"type":"VEC3"
		},
		{
			"bufferView":2,
			"componentType":5126,
			"count":6447,
			"type":"VEC2"
		},
		{
			"bufferView":3,
			"componentType":5123,
			"count":22470,
			"type":"SCALAR"
		},
		{
			"bufferView":4,
			"componentType":5126,
			"count":316,
			"max":[
				35.52968215942383,
				-16.08563232421875,
				7.313673973083496
			],
			"min":[
				-26.22218894958496,
				-48.15619659423828,
				-81.39115905761719
			],
			"type":"VEC3"
		},
		{
			"bufferView":5,
			"componentType":5126,
			"count":316,
			"type":"VEC3"
		},
		{
			"bufferView":6,
			"componentType":5126,
			"count":316,
			"type":"VEC2"
		},
		{
			"bufferView":7,
			"componentType":5123,
			"count":900,
			"type":"SCALAR"
		},
		{
			"bufferView":8,
			"componentType":5126,
			"count":136,
			"max":[
				17.221506118774414,
				-20.495052337646484,
				7.627076148986816
			],
			"min":[
				-7.914012908935547,
				-42.83647918701172,
				-56.22883605957031
			],
			"type":"VEC3"
		},
		{
			"bufferView":9,
			"componentType":5126,
			"count":136,
			"type":"VEC3"
		},
		{
			"bufferView":10,
			"componentType":5126,
			"count":136,
			"type":"VEC2"
		},
		{
			"bufferView":11,
			"componentType":5123,
			"count":510,
			"type":"SCALAR"
		},
		{
			"bufferView":12,
			"componentType":5126,
			"count":114,
			"max":[
				26.785690307617188,
				-21.80866050720215,
				-6.132306098937988
			],
			"min":[
				-17.478199005126953,
				-39.71812438964844,
				-80.54522705078125
			],
			"type":"VEC3"
		},
		{
			"bufferView":13,
			"componentType":5126,
			"count":114,
			"type":"VEC3"
		},
		{
			"bufferView":14,
			"componentType":5126,
			"count":114,
			"type":"VEC2"
		},
		{
			"bufferView":15,
			"componentType":5123,
			"count":390,
			"type":"SCALAR"
		},
		{
			"bufferView":16,
			"componentType":5126,
			"count":4937,
			"max":[
				23.21908187866211,
				-15.182083129882812,
				0.021688999608159065
			],
			"min":[
				-14.003155708312988,
				-38.55674362182617,
				-67.4371337890625
			],
			"type":"VEC3"
		},
		{
			"bufferView":17,
			"componentType":5126,
			"count":4937,
			"type":"VEC3"
		},
		{
			"bufferView":18,
			"componentType":5126,
			"count":4937,
			"type":"VEC2"
		},
		{
			"bufferView":19,
			"componentType":5123,
			"count":25488,
			"type":"SCALAR"
		},
		{
			"bufferView":20,
			"componentType":5126,
			"count":8,
			"max":[
				26.771522521972656,
				19.49873924255371,
				-3.6431539058685303
			],
			"min":[
				-16.66983985900879,
				-25,
				-5.296173095703125
			],
			"type":"VEC3"
		},
		{
			"bufferView":21,
			"componentType":5126,
			"count":8,
			"type":"VEC3"
		},
		{
			"bufferView":22,
			"componentType":5126,
			"count":8,
			"type":"VEC2"
		},
		{
			"bufferView":23,
			"componentType":5123,
			"count":12,
			"type":"SCALAR"
		},
		{
			"bufferView":24,
			"componentType":5126,
			"count":48,
			"max":[
				34.52668762207031,
				4.488246917724609,
				-2.0139379501342773
			],
			"min":[
				-24.256193161010742,
				-0.942113995552063,
				-28.642690658569336
			],
			"type":"VEC3"
		},
		{
			"bufferView":25,
			"componentType":5126,
			"count":48,
			"type":"VEC3"
		},
		{
			"bufferView":26,
			"componentType":5126,
			"count":48,
			"type":"VEC2"
		},
		{
			"bufferView":27,
			"componentType":5123,
			"count":72,
			"type":"SCALAR"
		},
		{
			"bufferView":28,
			"componentType":5126,
			"count":192,
			"max":[
				36.67610549926758,
				20.287757873535156,
				-27.001760482788086
			],
			"min":[
				-26.405611038208008,
				-12.835528373718262,
				-29.483190536499023
			],
			"type":"VEC3"
		},
		{
			"bufferView":29,
			"componentType":5126,
			"count":192,
			"type":"VEC3"
		},
		{
			"bufferView":30,
			"componentType":5126,
			"count":192,
			"type":"VEC2"
		},
		{
			"bufferView":31,
			"componentType":5123,
			"count":648,
			"type":"SCALAR"
		}
	],
	"bufferViews":[
		{
			"buffer":0,
			"byteLength":77364,
			"byteOffset":0,
			"target":34962
		},
		{
			"buffer":0,
			"byteLength":77364,
			"byteOffset":77364,
			"target":34962
		},
		{
			"buffer":0,
			"byteLength":51576,
			"byteOffset":154728,
			"target":34962
		},
		{
			"buffer":0,
			"byteLength":44940,
			"byteOffset":206304,
			"target":34963
		},
		{
			"buffer":0,
			"byteLength":3792,
			"byteOffset":251244,
			"target":34962
		},
		{
			"buffer":0,
			"byteLength":3792,
			"byteOffset":255036,
			"target":34962
		},
		{
			"buffer":0,
			"byteLength":2528,
			"byteOffset":258828,
			"target":34962
		},
		{
			"buffer":0,
			"byteLength":1800,
			"byteOffset":261356,
			"target":34963
		},
		{
			"buffer":0,
			"byteLength":1632,
			"byteOffset":263156,
			"target":34962
		},
		{
			"buffer":0,
			"byteLength":1632,
			"byteOffset":264788,
			"target":34962
		},
		{
			"buffer":0,
			"byteLength":1088,
			"byteOffset":266420,
			"target":34962
		},
		{
			"buffer":0,
			"byteLength":1020,
			"byteOffset":267508,
			"target":34963
		},
		{
			"buffer":0,
			"byteLength":1368,
			"byteOffset":268528,
			"target":34962
		},
		{
			"buffer":0,
			"byteLength":1368,
			"byteOffset":269896,
			"target":34962
		},
		{
			"buffer":0,
			"byteLength":912,
			"byteOffset":271264,
			"target":34962
		},
		{
			"buffer":0,
			"byteLength":780,
			"byteOffset":272176,
			"target":34963
		},
		{
			"buffer":0,
			"byteLength":59244,
			"byteOffset":272956,
			"target":34962
		},
		{
			"buffer":0,
			"byteLength":59244,
			"byteOffset":332200,
			"target":34962
		},
		{
			"buffer":0,
			"byteLength":39496,
			"byteOffset":391444,
			"target":34962
		},
		{
			"buffer":0,
			"byteLength":50976,
			"byteOffset":430940,
			"target":34963
		},
		{
			"buffer":0,
			"byteLength":96,
			"byteOffset":481916,
			"target":34962
		},
		{
			"buffer":0,
			"byteLength":96,
			"byteOffset":482012,
			"target":34962
		},
		{
			"buffer":0,
			"byteLength":64,
			"byteOffset":482108,
			"target":34962
		},
		{
			"buffer":0,
			"byteLength":24,
			"byteOffset":482172,
			"target":34963
		},
		{
			"buffer":0,
			"byteLength":576,
			"byteOffset":482196,
			"target":34962
		},
		{
			"buffer":0,
			"byteLength":576,
			"byteOffset":482772,
			"target":34962
		},
		{
			"buffer":0,
			"byteLength":384,
			"byteOffset":483348,
			"target":34962
		},
		{
			"buffer":0,
			"byteLength":144,
			"byteOffset":483732,
			"target":34963
		},
		{
			"buffer":0,
			"byteLength":2304,
			"byteOffset":483876,
			"target":34962
		},
		{
			"buffer":0,
			"byteLength":2304,
			"byteOffset":486180,
			"target":34962
		},
		{
			"buffer":0,
			"byteLength":1536,
			"byteOffset":488484,
			"target":34962
		},
		{
			"buffer":0,
			"byteLength":1296,
			"byteOffset":490020,
			"target":34963
		}
	],
	"buffers":[
		{
			"byteLength":491316,
			"uri":"cadeira.bin"
		}
	]
}
